# xmcd CD database file
#
# Track frame offsets:
#	150
#	26100
#	61201
#	90827
#	119928
#	139054
#	152629
#	173855
#	193055
#	225156
#
# Disc length: 3314 seconds
#
# Revision: 1
# Processed by: cddbd v1.5.2PL0 Copyright (c) Steve Scherf et al.
# Submitted via: CDex 1.51
#
DISCID=7e0cf00a
DTITLE=Harold Mabern Trio - Somewhere Over The Rainbow
DYEAR=2005
DGENRE=Jazz
TTITLE0=Somewhere Over The Rainbow
TTITLE1=A Sleeping Bee
TTITLE2=Blues In The Night
TTITLE3=Out Of This World
TTITLE4=Savanna
TTITLE5=Hooray For Love
TTITLE6=Stormy Weather
TTITLE7=I've Got The World On A String
TTITLE8=The Man That Got Away
TTITLE9=This Times The Dreams On Me
EXTD=YEAR: 2005
EXTT0=
EXTT1=
EXTT2=
EXTT3=
EXTT4=
EXTT5=
EXTT6=
EXTT7=
EXTT8=
EXTT9=
PLAYORDER=
